<?xml version="1.0" encoding="utf-8"?>
<!-- Generator: Adobe Illustrator 24.1.0, SVG Export Plug-In . SVG Version: 6.00 Build 0)  -->
<svg version="1.1" xmlns="http://www.w3.org/2000/svg" xmlns:xlink="http://www.w3.org/1999/xlink" x="0px" y="0px"
	 viewBox="0 0 200 200" style="enable-background:new 0 0 200 200;" xml:space="preserve">
<style type="text/css">
	.st0{fill:#FFFFFF;}
	.st1{fill:#E9453D;}
	.st2{fill:#020203;}
</style>
<g id="Laag_1">
</g>
<g id="iOS_9.3_UI_Kit">
	<g id="XMLID_1_">
		<path class="st0" d="M155,200H45c-24.85,0-45-20.15-45-45V45C0,20.15,20.15,0,45,0h110c24.85,0,45,20.15,45,45v110
			C200,179.85,179.85,200,155,200z"/>
	</g>
	<g id="XMLID_21_">
		<path id="XMLID_20_" class="st1" d="M36.7,49.55L50.58,29v-0.19H37.2v-2.7h17.09v2.12L40.5,48.78v0.19h14.11v2.7H36.7V49.55z"/>
		<path id="XMLID_18_" class="st1" d="M71.65,32.71c1.25,0.67,2.25,1.64,2.98,2.92c0.73,1.28,1.09,2.83,1.09,4.65v3.11
			c0,1.82-0.36,3.37-1.09,4.65c-0.73,1.28-1.72,2.25-2.98,2.93c-1.25,0.67-2.67,1.01-4.26,1.01c-1.61,0-3.04-0.34-4.3-1
			c-1.25-0.67-2.24-1.64-2.97-2.92c-0.72-1.28-1.09-2.84-1.09-4.67v-3.11c0-1.76,0.36-3.28,1.1-4.56c0.73-1.28,1.73-2.27,2.99-2.97
			s2.68-1.05,4.27-1.05S70.4,32.05,71.65,32.71z M64.55,35.11c-0.81,0.53-1.44,1.27-1.89,2.21s-0.67,2.04-0.67,3.3v2.47
			c0,1.29,0.21,2.4,0.64,3.34c0.43,0.94,1.05,1.67,1.86,2.18c0.81,0.51,1.79,0.77,2.92,0.77c1.14,0,2.1-0.26,2.9-0.77
			c0.8-0.51,1.41-1.24,1.83-2.18s0.64-2.06,0.64-3.34v-2.47c0-1.26-0.22-2.36-0.66-3.3c-0.44-0.94-1.06-1.68-1.86-2.21
			c-0.8-0.53-1.76-0.79-2.85-0.79C66.32,34.32,65.36,34.58,64.55,35.11z"/>
		<path id="XMLID_15_" class="st1" d="M81.5,32.03h2.94v3.59h0.15c0.17-0.52,0.46-1.09,0.86-1.69c0.4-0.61,1.01-1.13,1.83-1.56
			c0.82-0.44,1.92-0.66,3.3-0.66c1.98,0,3.6,0.53,4.84,1.6c1.24,1.07,1.86,2.69,1.86,4.88v13.48h-2.94v-12.5
			c0-1.05-0.17-1.93-0.52-2.65s-0.85-1.26-1.52-1.64c-0.66-0.37-1.47-0.56-2.42-0.56c-1.24,0-2.26,0.29-3.06,0.86
			c-0.81,0.57-1.4,1.35-1.8,2.31c-0.39,0.97-0.59,2.04-0.59,3.23v10.95H81.5V32.03z"/>
		<path id="XMLID_13_" class="st1" d="M113.23,32.1c0.76,0.26,1.42,0.62,1.96,1.1c0.55,0.48,0.96,1.05,1.22,1.71h0.15V24.77h2.94
			v26.9h-2.79v-3.12h-0.15c-0.14,0.5-0.39,0.96-0.75,1.38c-0.36,0.42-0.81,0.78-1.35,1.09s-1.13,0.54-1.79,0.71
			c-0.66,0.17-1.34,0.25-2.07,0.25c-1.53,0-2.87-0.33-4.02-1c-1.14-0.67-2.02-1.61-2.65-2.83c-0.62-1.22-0.94-2.64-0.94-4.26v-4.06
			c0-1.63,0.32-3.06,0.96-4.27c0.64-1.21,1.54-2.15,2.7-2.83s2.5-1.01,4.03-1.01C111.62,31.71,112.47,31.84,113.23,32.1z
			 M108.33,35.06c-0.77,0.5-1.36,1.21-1.77,2.14c-0.41,0.93-0.62,2.04-0.62,3.34v2.55c0,1.31,0.21,2.43,0.63,3.37
			c0.42,0.94,1.02,1.65,1.81,2.15c0.79,0.5,1.73,0.75,2.83,0.75c1.09,0,2.03-0.24,2.83-0.73c0.8-0.49,1.42-1.17,1.86-2.06
			c0.44-0.89,0.66-1.93,0.66-3.12V39.8c0-1.06-0.24-2-0.71-2.83c-0.47-0.82-1.12-1.47-1.94-1.95c-0.82-0.47-1.76-0.71-2.82-0.71
			C110.02,34.32,109.1,34.57,108.33,35.06z"/>
		<path id="XMLID_10_" class="st1" d="M126.76,50.33c-1.18-1.11-1.78-2.56-1.78-4.37c0-1.71,0.58-3.09,1.75-4.15
			c1.17-1.06,2.87-1.59,5.12-1.59h5.24v-2c0-1.34-0.39-2.32-1.18-2.95c-0.78-0.63-1.85-0.94-3.18-0.94c-0.87,0-1.59,0.1-2.14,0.31
			c-0.56,0.21-0.99,0.49-1.3,0.84c-0.31,0.35-0.54,0.77-0.69,1.25h-2.86c0.07-0.84,0.3-1.57,0.67-2.19
			c0.37-0.62,0.86-1.14,1.48-1.56c0.62-0.42,1.35-0.73,2.19-0.94c0.84-0.21,1.77-0.31,2.8-0.31c1.31,0,2.51,0.21,3.6,0.63
			c1.09,0.42,1.96,1.1,2.62,2.05c0.65,0.95,0.98,2.21,0.98,3.8v13.48h-2.85v-2.64h-0.13c-0.34,0.54-0.76,1.03-1.28,1.48
			s-1.14,0.81-1.87,1.08c-0.73,0.27-1.58,0.4-2.55,0.4C129.49,51.99,127.95,51.43,126.76,50.33z M134.67,48.79
			c0.74-0.39,1.33-0.93,1.77-1.6c0.44-0.67,0.66-1.44,0.66-2.29v-2.25h-5.18c-1.4,0-2.4,0.31-2.99,0.93c-0.6,0.62-0.9,1.39-0.9,2.31
			c0,1.2,0.42,2.08,1.25,2.64c0.84,0.56,1.79,0.84,2.86,0.84C133.08,49.38,133.93,49.19,134.67,48.79z"/>
		<path id="XMLID_7_" class="st1" d="M157.79,54.89c0.9-0.91,1.35-2.17,1.35-3.78v-2.86h-0.17c-0.2,0.42-0.47,0.82-0.81,1.19
			s-0.75,0.69-1.23,0.97c-0.47,0.28-1,0.5-1.59,0.66c-0.59,0.16-1.22,0.24-1.89,0.24c-1.45,0-2.77-0.33-3.96-0.97
			c-1.19-0.65-2.14-1.58-2.84-2.8c-0.7-1.22-1.05-2.67-1.05-4.35v-3.31c0-1.68,0.35-3.14,1.05-4.36c0.7-1.22,1.64-2.16,2.83-2.82
			c1.18-0.66,2.5-0.98,3.95-0.98c0.99,0,1.87,0.16,2.65,0.49c0.78,0.32,1.43,0.74,1.96,1.24c0.53,0.5,0.9,1.01,1.11,1.53h0.13v-2.94
			h2.79v18.98c0,1.35-0.2,2.51-0.61,3.5s-0.98,1.8-1.72,2.44s-1.64,1.12-2.68,1.43c-1.04,0.31-2.2,0.47-3.47,0.47
			c-1.61,0-2.96-0.25-4.04-0.74c-1.09-0.49-1.92-1.14-2.5-1.94c-0.58-0.8-0.92-1.67-1.02-2.6h3.07c0.09,0.47,0.32,0.91,0.7,1.32
			s0.9,0.73,1.56,0.98c0.66,0.25,1.44,0.37,2.34,0.37C155.53,56.25,156.89,55.8,157.79,54.89z M151.1,35.1
			c-0.82,0.52-1.45,1.26-1.89,2.2c-0.44,0.94-0.66,2.03-0.66,3.26v1.93c0,1.22,0.23,2.3,0.7,3.24c0.47,0.94,1.12,1.67,1.95,2.19
			c0.83,0.52,1.78,0.79,2.85,0.79c1.11,0,2.04-0.27,2.8-0.81c0.76-0.54,1.33-1.23,1.71-2.08c0.39-0.85,0.58-1.74,0.58-2.68v-3.16
			c0-0.97-0.2-1.89-0.61-2.75c-0.41-0.86-0.99-1.56-1.75-2.11c-0.76-0.54-1.68-0.81-2.77-0.81C152.88,34.32,151.91,34.58,151.1,35.1
			z"/>
	</g>
	<g id="XMLID_27_">
		<path id="XMLID_26_" class="st2" d="M65.28,69.76c15.94,0,27.77,11.12,27.77,25.27c0,9.84-4.5,17.29-20.25,33.75L44.19,159v0.26
			h52.33v4.63h-59.6v-3.86l32.98-34.91c14.27-14.91,18.06-21.28,18.06-29.9c0-11.76-9.64-20.9-22.69-20.9
			c-13.44,0-23.4,9.19-23.72,21.8h-4.95C36.93,80.82,48.95,69.76,65.28,69.76z"/>
		<path id="XMLID_24_" class="st2" d="M143.65,140.67H95.88v-4.69c12.99-20.12,26.81-39.99,45.45-65.13l7.33-0.07v65.25h14.72v4.63
			h-14.72v23.21h-5.01V140.67z M101.47,136.05h42.17V75.94h-0.13c-16.39,21.86-30.35,41.98-42.04,59.98V136.05z"/>
	</g>
</g>
</svg>
