<?xml version="1.0" encoding="utf-8"?>
<!-- Generator: Adobe Illustrator 24.1.0, SVG Export Plug-In . SVG Version: 6.00 Build 0)  -->
<svg version="1.1" xmlns="http://www.w3.org/2000/svg" xmlns:xlink="http://www.w3.org/1999/xlink" x="0px" y="0px"
	 viewBox="0 0 200 200" style="enable-background:new 0 0 200 200;" xml:space="preserve">
<style type="text/css">
	.st0{fill:#FCDE00;}
</style>
<g id="Layer_1">
</g>
<g id="iOS_UI_Kit">
	<circle id="XMLID_1_" class="st0" cx="100" cy="100" r="47.06"/>
	<rect id="XMLID_2_" x="94.12" class="st0" width="11.76" height="35.29"/>
	<rect id="XMLID_3_" x="94.12" y="164.71" class="st0" width="11.76" height="35.29"/>
	
		<rect id="XMLID_4_" x="11.76" y="82.35" transform="matrix(4.460616e-11 -1 1 4.460616e-11 -82.3529 117.6471)" class="st0" width="11.76" height="35.29"/>
	
		<rect id="XMLID_5_" x="176.47" y="82.35" transform="matrix(4.375617e-11 -1 1 4.375617e-11 82.3529 282.3529)" class="st0" width="11.76" height="35.29"/>
	
		<rect id="XMLID_6_" x="37.97" y="29.14" transform="matrix(0.7071 -0.7071 0.7071 0.7071 -18.1622 43.8474)" class="st0" width="11.76" height="29.41"/>
	
		<rect id="XMLID_7_" x="150.27" y="141.45" transform="matrix(0.7071 -0.7071 0.7071 0.7071 -64.6805 156.1526)" class="st0" width="11.76" height="29.41"/>
	
		<rect id="XMLID_8_" x="37.97" y="141.45" transform="matrix(-0.7071 -0.7071 0.7071 -0.7071 -35.5644 297.5739)" class="st0" width="11.76" height="29.41"/>
	
		<rect id="XMLID_9_" x="150.27" y="29.14" transform="matrix(-0.7071 -0.7071 0.7071 -0.7071 235.5644 185.2688)" class="st0" width="11.76" height="29.41"/>
</g>
</svg>
