<?xml version="1.0" encoding="utf-8"?>
<!-- Generator: Adobe Illustrator 24.1.0, SVG Export Plug-In . SVG Version: 6.00 Build 0)  -->
<svg version="1.1" xmlns="http://www.w3.org/2000/svg" xmlns:xlink="http://www.w3.org/1999/xlink" x="0px" y="0px"
	 viewBox="0 0 250 183.9" style="enable-background:new 0 0 250 183.9;" xml:space="preserve">
<style type="text/css">
	.st0{fill:#FFFFFF;}
</style>
<g id="Laag_1">
	<g id="Layer_1">
	</g>
	<path id="XMLID_104_" class="st0" d="M173.9,145.2c-42.7,0-77.4-34.7-77.4-77.4c0-19.7,7.4-37.6,19.5-51.3
		C72.6,19.7,38.4,55.8,38.4,100c0,46.3,37.5,83.9,83.9,83.9c30.9,0,57.8-16.7,72.4-41.6C188,144.1,181.1,145.2,173.9,145.2z"/>
</g>
<g id="Layer_1_1_">
	<path id="XMLID_1_" class="st0" d="M210.8,78.4L210.8,78.4c0-16.2-13.1-29.3-29.3-29.3l0,0c16.2,0,29.3-13.1,29.3-29.3l0,0
		c0,16.2,13.1,29.3,29.3,29.3l0,0C223.9,49.1,210.8,62.2,210.8,78.4z"/>
	<path id="XMLID_11_" class="st0" d="M161.3,27.6L161.3,27.6c0-7.6-6.2-13.8-13.8-13.8l0,0c7.6,0,13.8-6.2,13.8-13.8l0,0
		c0,7.6,6.2,13.8,13.8,13.8l0,0C167.5,13.8,161.3,20,161.3,27.6z"/>
</g>
</svg>
