<?xml version="1.0" encoding="utf-8"?>
<!-- Generator: Adobe Illustrator 24.1.0, SVG Export Plug-In . SVG Version: 6.00 Build 0)  -->
<svg version="1.1" id="Laag_1" xmlns="http://www.w3.org/2000/svg" xmlns:xlink="http://www.w3.org/1999/xlink" x="0px" y="0px"
	 viewBox="0 0 200 159.92" style="enable-background:new 0 0 200 159.92;" xml:space="preserve">
<style type="text/css">
	.st0{fill:#FFFFFF;}
	.st1{opacity:0.5;fill:#FFFFFF;enable-background:new    ;}
</style>
<g id="Layer_1">
</g>
<path id="XMLID_201_" class="st0" d="M32.07,42.35l-3.16-7.39c-0.54-1.26-1.55-2.26-2.81-2.81l-7.39-3.16l7.39-3.16
	c1.26-0.54,2.26-1.55,2.81-2.81l3.16-7.39l3.16,7.39c0.54,1.26,1.55,2.26,2.81,2.81l7.39,3.16l-7.39,3.16
	c-1.26,0.54-2.26,1.55-2.81,2.81L32.07,42.35z"/>
<path id="XMLID_202_" class="st0" d="M10.69,82.43l-2.53-5.91c-0.43-1.01-1.24-1.82-2.25-2.25L0,71.74l5.91-2.53
	c1.01-0.43,1.82-1.24,2.25-2.25l2.53-5.91l2.53,5.91c0.43,1.01,1.24,1.82,2.25,2.25l5.91,2.53l-5.91,2.53
	c-1.01,0.43-1.82,1.24-2.25,2.25L10.69,82.43z"/>
<path id="XMLID_203_" class="st1" d="M179.04,119.84c0-22.14-17.95-40.08-40.08-40.08c-0.8,0-1.56,0.07-2.35,0.12
	c-6.13-18.68-23.69-32.19-44.42-32.19c-25.82,0-46.77,20.94-46.77,46.77c0,0.61,0.07,1.2,0.09,1.8
	c-15.21,2.51-26.81,15.68-26.81,31.6c0,17.71,14.36,32.07,32.07,32.07h90.86v-0.13C162.51,158.41,179.04,141.08,179.04,119.84z"/>
<path id="XMLID_204_" class="st0" d="M143.84,69.3c12.67,1.21,23.98,7.12,32.21,15.93c12.82-6.74,22.03-19.41,23.95-34.37
	c-4.06,1.39-8.41,2.17-12.94,2.17c-22.14,0-40.08-17.95-40.08-40.08c0-4.53,0.79-8.88,2.17-12.94
	c-20.63,2.66-36.92,19.14-39.26,39.87C124.6,44.63,136.95,55.12,143.84,69.3z"/>
</svg>
