<?xml version="1.0" encoding="utf-8"?>
<!-- Generator: Adobe Illustrator 24.1.3, SVG Export Plug-In . SVG Version: 6.00 Build 0)  -->
<svg version="1.1" id="Laag_1" xmlns="http://www.w3.org/2000/svg" xmlns:xlink="http://www.w3.org/1999/xlink" x="0px" y="0px"
	 viewBox="0 0 225 159.9" style="enable-background:new 0 0 225 159.9;" xml:space="preserve">
<style type="text/css">
	.st0{fill:#FFFFFF;}
	.st1{opacity:0.5;fill:#FFFFFF;enable-background:new    ;}
</style>
<g id="Layer_1">
</g>
<path id="XMLID_201_" class="st0" d="M48.1,42.4L44.9,35c-0.5-1.3-1.5-2.3-2.8-2.8L34.7,29l7.4-3.2c1.3-0.5,2.3-1.5,2.8-2.8l3.2-7.4
	l3.2,7.4c0.5,1.3,1.5,2.3,2.8,2.8l7.4,3.2l-7.4,3.2c-1.3,0.5-2.3,1.5-2.8,2.8L48.1,42.4z"/>
<path id="XMLID_202_" class="st0" d="M26.7,82.4l-2.5-5.9c-0.4-1-1.2-1.8-2.2-2.2l-5.9-2.5l5.9-2.5c1-0.4,1.8-1.2,2.2-2.2l2.5-5.9
	l2.5,5.9c0.4,1,1.2,1.8,2.2,2.2l5.9,2.5l-5.8,2.5c-1,0.4-1.8,1.2-2.2,2.2L26.7,82.4z"/>
<path id="XMLID_203_" class="st1" d="M195,119.8c0-22.1-17.9-40.1-40.1-40.1c-0.8,0-1.6,0.1-2.4,0.1c-6.1-18.7-23.7-32.2-44.4-32.2
	c-25.8,0-46.8,20.9-46.8,46.8c0,0.6,0.1,1.2,0.1,1.8c-15.2,2.5-26.8,15.7-26.8,31.6c0,17.7,14.4,32.1,32.1,32.1h90.9v-0.1
	C178.5,158.4,195,141.1,195,119.8z"/>
<path id="XMLID_204_" class="st0" d="M159.8,69.3c12.7,1.2,24,7.1,32.2,15.9c12.8-6.7,22-19.4,23.9-34.4c-4.1,1.4-8.4,2.2-12.9,2.2
	c-22.1,0-40.1-18-40.1-40.1c0-4.5,0.8-8.9,2.2-12.9c-20.6,2.7-36.9,19.1-39.3,39.9C140.6,44.6,152.9,55.1,159.8,69.3z"/>
</svg>
