<?xml version="1.0" encoding="utf-8"?>
<!-- Generator: Adobe Illustrator 24.1.0, SVG Export Plug-In . SVG Version: 6.00 Build 0)  -->
<svg version="1.1" id="Laag_1" xmlns="http://www.w3.org/2000/svg" xmlns:xlink="http://www.w3.org/1999/xlink" x="0px" y="0px"
	 viewBox="0 0 250 209.2" style="enable-background:new 0 0 250 209.2;" xml:space="preserve">
<style type="text/css">
	.st0{opacity:0.5;fill:#FFFFFF;enable-background:new    ;}
	.st1{fill:#61C5F1;}
</style>
<g id="Layer_1">
</g>
<g id="iOS_UI_Kit">
	<path id="XMLID_433_" class="st0" d="M183.6,42.4c-1.8,0-3.6,0.1-5.4,0.3C171.1,18.1,148.4,0,121.5,0C88.8,0,62.4,26.4,62.4,59.1
		c0,2.7,0.2,5.4,0.6,8C45.5,69.8,32.1,84.8,32.1,103c0,20.1,16.3,36.4,36.4,36.4h115.2c26.8,0,48.5-21.7,48.5-48.5
		S210.4,42.4,183.6,42.4z"/>
	
		<rect id="XMLID_434_" x="38.2" y="166" transform="matrix(0.5878 -0.809 0.809 0.5878 -114.2782 118.3515)" class="st1" width="41.7" height="10.6"/>
	
		<rect id="XMLID_435_" x="165.6" y="165.9" transform="matrix(0.5878 -0.809 0.809 0.5878 -61.6665 221.4024)" class="st1" width="41.7" height="10.6"/>
	
		<rect id="XMLID_436_" x="53.8" y="174.5" transform="matrix(0.5878 -0.809 0.809 0.5878 -110.221 143.3715)" class="st1" width="63.6" height="10.6"/>
	
		<rect id="XMLID_437_" x="93.7" y="172.2" transform="matrix(0.5878 -0.809 0.809 0.5878 -93.7237 171.0582)" class="st1" width="54.5" height="10.6"/>
	
		<rect id="XMLID_438_" x="118.6" y="174.5" transform="matrix(0.5878 -0.809 0.809 0.5878 -83.1228 196.4193)" class="st1" width="65.1" height="10.6"/>
</g>
</svg>
