<?xml version="1.0" encoding="utf-8"?>
<!-- Generator: Adobe Illustrator 24.1.0, SVG Export Plug-In . SVG Version: 6.00 Build 0)  -->
<svg version="1.1" id="Laag_1" xmlns="http://www.w3.org/2000/svg" xmlns:xlink="http://www.w3.org/1999/xlink" x="0px" y="0px"
	 viewBox="0 0 250 200" style="enable-background:new 0 0 250 200;" xml:space="preserve">
<style type="text/css">
	.st0{fill:#FFFFFF;}
	.st1{opacity:0.5;fill:#FFFFFF;enable-background:new    ;}
</style>
<g id="Layer_1">
</g>
<g id="iOS_UI_Kit">
	<polygon id="XMLID_167_" class="st0" points="110.9,72.7 153.3,72.7 144.2,109.1 165.4,109.1 112.4,200 116.9,139.4 95.7,139.4 	
		"/>
	<path id="XMLID_169_" class="st1" d="M183.6,42.4c-1.8,0-3.6,0.1-5.4,0.3C171.1,18.1,148.4,0,121.5,0C88.8,0,62.4,26.5,62.4,59.1
		c0,2.7,0.2,5.4,0.6,8C45.5,69.8,32.1,84.8,32.1,103c0,20.1,16.3,36.4,36.4,36.4h14.8l0.6-2.7l17.3-76.1h67.6L159.7,97h26.8
		l-24.8,42.4h21.8c26.8,0,48.5-21.7,48.5-48.5S210.4,42.4,183.6,42.4z"/>
</g>
</svg>
