<?xml version="1.0" encoding="utf-8"?>
<!-- Generator: Adobe Illustrator 24.1.0, SVG Export Plug-In . SVG Version: 6.00 Build 0)  -->
<svg version="1.1" xmlns="http://www.w3.org/2000/svg" xmlns:xlink="http://www.w3.org/1999/xlink" x="0px" y="0px"
	 viewBox="0 0 200 222.33" style="enable-background:new 0 0 200 222.33;" xml:space="preserve">
<style type="text/css">
	.st0{opacity:0.8;fill:#FFFFFF;}
</style>
<g id="Layer_1">
</g>
<g id="iOS_UI_Kit">
	<polygon id="XMLID_265_" class="st0" points="191.11,135.56 183.68,122.69 159.27,136.79 114.89,111.17 159.27,85.55 183.65,99.63 
		191.08,86.76 174.13,76.97 200,62.03 192.57,49.16 166.66,64.12 166.66,44.47 151.81,44.47 151.81,72.7 107.37,98.35 107.37,47.04 
		131.84,32.91 124.41,20.04 107.37,29.88 107.37,0 92.51,0 92.51,29.84 75.56,20.06 68.13,32.93 92.51,47.01 92.51,98.24 
		48.14,72.62 48.14,44.47 33.28,44.47 33.28,64.04 7.43,49.12 0,61.99 25.87,76.93 8.88,86.74 16.31,99.61 40.74,85.51 
		85.17,111.17 40.74,136.82 16.29,122.71 8.86,135.58 25.87,145.4 0.02,160.33 7.45,173.2 33.28,158.29 33.28,177.87 48.14,177.87 
		48.14,149.71 92.51,124.09 92.51,175.33 68.15,189.39 75.58,202.27 92.51,192.49 92.51,222.33 107.37,222.33 107.37,192.45 
		124.39,202.28 131.82,189.41 107.37,175.29 107.37,123.98 151.81,149.64 151.81,177.87 166.66,177.87 166.66,158.22 192.55,173.16 
		199.98,160.29 174.13,145.37 	"/>
</g>
</svg>
